<?xml version="1.0" standalone="no"?>
<!DOCTYPE svg PUBLIC "-//W3C//DTD SVG 20010904//EN"
 "http://www.w3.org/TR/2001/REC-SVG-20010904/DTD/svg10.dtd">
<svg version="1.0" xmlns="http://www.w3.org/2000/svg"
 width="667.000000pt" height="374.000000pt" viewBox="0 0 667.000000 374.000000"
 preserveAspectRatio="xMidYMid meet">
<metadata>
Created by potrace 1.16, written by Peter Selinger 2001-2019
</metadata>
<g transform="translate(0.000000,374.000000) scale(0.100000,-0.100000)"
fill="#000000" stroke="none">
<path d="M3840 3543 c-72 -30 -275 -84 -492 -128 -432 -90 -533 -121 -644
-200 -122 -87 -203 -210 -224 -339 -21 -130 -7 -653 18 -678 6 -6 20 0 36 14
25 21 31 44 78 281 55 278 65 305 128 338 33 18 69 19 593 19 539 0 559 -1
597 -20 25 -13 47 -34 59 -59 11 -21 41 -146 67 -277 25 -131 52 -251 60 -265
16 -31 44 -45 55 -27 15 24 21 159 17 428 -3 235 -6 282 -22 324 l-18 49 45
86 c53 100 90 208 85 248 l-3 28 -218 0 -218 0 6 32 c3 18 15 52 25 75 34 75
26 95 -30 71z"/>
<path d="M2851 2340 c-108 -20 -121 -24 -105 -40 13 -13 262 -16 275 -3 6 6 9
21 7 34 -4 32 -40 33 -177 9z"/>
<path d="M3637 2353 c-12 -11 -7 -63 6 -64 47 -5 264 5 271 12 16 15 0 21
-116 40 -124 20 -151 22 -161 12z"/>
<path d="M2875 694 c-60 -19 -175 -55 -254 -80 -237 -75 -349 -122 -398 -167
l-44 -41 23 -22 c46 -45 225 -157 343 -214 143 -69 269 -113 423 -146 101 -22
136 -24 363 -24 280 0 357 11 559 76 180 59 425 188 562 296 l38 29 -23 31
c-29 40 -82 69 -202 113 -117 43 -561 175 -586 175 -14 0 -19 -10 -21 -42 l-3
-43 -90 -34 c-76 -29 -107 -35 -199 -39 -123 -5 -185 5 -293 50 l-73 30 0 44
c0 24 -3 44 -7 43 -5 0 -57 -16 -118 -35z"/>
</g>
</svg>
