<?xml version="1.0" standalone="no"?>
<!DOCTYPE svg PUBLIC "-//W3C//DTD SVG 20010904//EN"
 "http://www.w3.org/TR/2001/REC-SVG-20010904/DTD/svg10.dtd">
<svg version="1.0" xmlns="http://www.w3.org/2000/svg"
 width="360.000000pt" height="360.000000pt" viewBox="0 0 360.000000 360.000000"
 preserveAspectRatio="xMidYMid meet">
<metadata>
Created by potrace 1.16, written by Peter Selinger 2001-2019
</metadata>
<g transform="translate(0.000000,360.000000) scale(0.100000,-0.100000)"
fill="#000000" stroke="none">
<path d="M1385 2951 c-72 -46 -160 -137 -182 -188 -9 -21 -24 -65 -33 -98
l-17 -60 -22 42 c-11 23 -21 56 -21 73 0 48 -16 27 -30 -39 -18 -87 -9 -202
23 -279 l26 -63 -29 5 c-17 3 -44 9 -61 12 l-30 6 40 -54 c57 -75 102 -172
150 -325 23 -73 44 -133 47 -133 4 0 2 12 -2 28 -5 15 -9 124 -9 242 -1 209
-7 256 -41 344 -21 55 48 -53 72 -112 1 -1 35 15 75 37 123 65 194 83 359 88
110 4 167 1 235 -11 110 -21 271 -74 359 -118 l66 -33 5 -183 c3 -109 1 -201
-5 -229 -21 -91 0 -52 41 78 48 154 93 252 148 326 38 49 38 51 18 57 -12 3
-37 6 -54 6 -34 0 -44 14 -19 23 7 3 34 32 59 64 51 67 50 70 -23 120 -69 46
-105 62 -183 82 l-72 18 68 8 c38 4 96 4 130 1 l62 -7 -30 25 c-50 42 -170
106 -247 133 -94 33 -293 43 -403 20 -38 -8 -72 -13 -74 -12 -5 6 119 66 174
85 l50 17 -53 12 c-76 16 -233 14 -305 -5 -75 -19 -185 -74 -232 -115 -20 -18
-39 -29 -42 -25 -3 3 12 43 35 88 22 46 40 84 38 85 -1 1 -29 -15 -61 -36z"/>
<path d="M1235 1269 c-66 -41 -99 -73 -137 -132 -25 -39 -43 -53 -102 -81 -76
-35 -140 -82 -131 -97 4 -5 0 -7 -7 -4 -18 6 -56 -46 -79 -105 -18 -48 -16
-56 13 -51 4 0 5 -6 2 -14 -7 -18 5 -20 20 -2 6 7 10 10 8 8 -1 -3 7 -15 19
-27 17 -18 26 -21 40 -14 12 7 20 7 24 0 4 -6 3 -10 -2 -9 -22 4 -34 -2 -27
-13 8 -14 -36 20 -48 37 -4 5 -10 6 -14 2 -4 -4 -5 -9 -3 -10 2 -2 37 -32 78
-66 41 -34 81 -59 88 -56 8 2 11 0 8 -5 -13 -22 202 -137 350 -188 164 -56
280 -75 465 -75 186 0 299 19 468 77 139 48 365 167 348 183 -3 3 -17 -2 -31
-11 -14 -9 -25 -13 -25 -9 0 5 -4 4 -8 -2 -13 -18 -56 -50 -47 -36 6 11 4 13
-9 8 -9 -4 -15 -3 -12 2 3 5 -1 11 -9 15 -8 3 -15 10 -15 16 0 6 5 8 11 5 6
-4 13 2 16 13 3 11 11 23 18 26 9 3 11 -2 8 -15 -3 -11 0 -19 6 -19 7 0 9 5 6
10 -3 6 -1 10 4 10 14 0 14 -13 0 -27 -6 -6 -18 -9 -27 -6 -10 4 -13 2 -8 -5
12 -20 33 -14 56 16 12 15 18 21 14 13 -6 -11 -3 -13 12 -6 10 4 28 8 39 8 21
0 70 34 148 103 47 41 50 51 34 114 -5 16 -2 14 8 -8 9 -18 13 -37 10 -43 -4
-5 -1 -9 4 -9 17 0 13 41 -9 85 -25 54 -57 88 -71 79 -7 -4 -9 -3 -6 4 10 16
-50 61 -129 98 -60 28 -77 42 -104 83 -36 58 -80 98 -144 136 l-46 27 -94 -32
c-92 -30 -95 -32 -91 -58 2 -15 6 -54 9 -87 l5 -60 -76 -90 c-41 -49 -117
-134 -169 -188 l-94 -98 -94 98 c-52 54 -128 139 -169 188 l-76 90 6 90 5 90
-78 24 c-44 13 -86 25 -94 28 -8 2 -37 -10 -65 -28z m-73 -261 c46 -40 99 -84
117 -98 18 -14 39 -31 46 -37 8 -7 16 -13 20 -13 6 0 74 -48 85 -60 8 -10 103
-64 143 -82 24 -11 36 -22 31 -29 -4 -8 -3 -9 4 -5 6 4 52 -14 102 -39 l90
-45 90 45 c91 46 120 56 86 30 -17 -13 -18 -15 -3 -15 15 0 21 11 18 32 0 3
33 25 74 47 41 22 99 58 129 80 30 23 58 41 61 41 4 0 13 7 21 15 22 22 37 19
24 -5 -6 -12 -21 -20 -35 -20 -14 0 -25 -5 -25 -10 0 -6 11 -8 26 -4 19 5 25
4 20 -5 -4 -6 -16 -11 -27 -11 -11 0 -18 -4 -15 -8 3 -5 -1 -9 -9 -9 -8 0 -12
4 -9 9 9 14 -9 9 -28 -9 -10 -9 -18 -23 -18 -31 0 -10 -3 -12 -13 -4 -9 8 -19
5 -37 -8 -18 -14 -20 -20 -10 -20 9 0 20 3 26 8 5 4 1 -1 -9 -10 -21 -19 -42
-24 -32 -8 3 6 -1 10 -10 10 -9 0 -19 -9 -22 -20 -6 -22 -23 -27 -24 -7 0 10
-2 10 -6 0 -2 -7 -11 -13 -19 -13 -8 0 -14 -5 -14 -11 0 -6 9 -8 23 -4 15 5
19 4 12 -3 -5 -5 -19 -12 -30 -15 -17 -4 -16 -5 4 -6 14 0 33 6 43 16 10 9 18
11 18 5 0 -6 -5 -14 -11 -18 -8 -5 -8 -8 0 -13 13 -8 -96 -4 -118 4 -9 3 -12
2 -7 -2 4 -4 22 -13 39 -20 27 -10 28 -12 7 -10 -14 2 -35 8 -47 15 -28 16
-31 15 -29 -5 1 -13 -5 -17 -22 -16 -13 2 -35 -3 -50 -11 l-27 -14 27 -7 c15
-4 32 -4 38 0 5 3 17 0 24 -8 13 -12 10 -14 -22 -13 -20 1 -43 7 -50 14 -7 6
-22 12 -32 12 -10 0 -25 -6 -32 -12 -7 -7 -30 -13 -50 -14 -32 -1 -35 1 -22
13 7 8 19 11 24 8 6 -4 23 -4 38 0 l27 7 -25 13 c-14 8 -32 14 -40 14 -8 0 -4
-5 10 -11 14 -6 20 -12 13 -15 -17 -6 -63 29 -58 45 2 6 0 12 -5 12 -6 0 -10
-5 -10 -11 0 -5 -5 -7 -10 -4 -6 4 -7 11 -4 17 5 7 2 8 -6 3 -7 -4 -34 -7 -61
-6 -54 1 -60 -6 -28 -35 17 -15 23 -16 40 -6 11 7 19 8 19 2 0 -5 -5 -10 -11
-10 -6 0 -9 -6 -6 -14 8 -20 -51 15 -96 57 -34 32 -54 77 -35 77 6 0 2 8 -9
18 -10 9 -14 14 -9 10 6 -5 17 -8 26 -8 18 0 -28 39 -48 40 -7 0 -20 9 -29 20
-17 19 -39 29 -29 12 3 -5 -1 -9 -9 -9 -10 0 -12 4 -5 12 13 16 -13 38 -37 32
-14 -4 -14 -5 4 -6 23 -1 43 -21 21 -21 -18 0 -43 17 -44 30 -1 5 -2 14 -3 20
0 5 -5 9 -10 7 -5 -1 -10 3 -11 8 -4 14 -62 56 -69 50 -2 -3 5 -12 17 -21 31
-21 27 -34 -9 -34 -16 0 -28 4 -25 9 4 5 0 12 -6 14 -9 4 -10 6 -1 6 6 1 15
-3 18 -9 3 -5 11 -10 17 -10 6 0 4 8 -6 19 -10 11 -14 25 -10 36 6 15 4 16
-13 7 -11 -6 -24 -8 -28 -4 -5 4 -5 1 -1 -6 4 -7 12 -10 17 -7 5 4 9 1 9 -4 0
-11 -11 -14 -27 -8 -5 1 -7 6 -5 11 2 5 -4 6 -13 3 -8 -4 -15 -2 -15 3 0 6 7
11 15 11 8 1 20 3 25 4 6 1 15 3 22 4 6 0 3 7 -7 15 -17 12 -21 12 -31 -3 -10
-13 -15 -14 -25 -3 -11 10 -11 14 0 25 10 10 11 9 6 -5 -4 -10 -3 -18 3 -18
12 0 23 26 15 34 -4 3 -15 6 -25 6 -11 0 -18 7 -18 20 0 11 -4 20 -10 20 -5 0
-10 -5 -10 -11 0 -5 -4 -8 -10 -4 -5 3 -6 13 -3 23 6 16 5 16 -13 0 -18 -16
-23 -18 -43 -18 -5 0 -11 -9 -14 -21 -4 -15 -12 -20 -29 -18 -13 2 -34 -4 -48
-14 -13 -9 -29 -17 -35 -17 -9 0 54 45 65 45 3 0 16 8 30 17 21 13 81 46 87
48 1 0 39 -33 85 -72z"/>
</g>
</svg>
