<?xml version="1.0" standalone="no"?>
<!DOCTYPE svg PUBLIC "-//W3C//DTD SVG 20010904//EN"
 "http://www.w3.org/TR/2001/REC-SVG-20010904/DTD/svg10.dtd">
<svg version="1.0" xmlns="http://www.w3.org/2000/svg"
 width="662.000000pt" height="377.000000pt" viewBox="0 0 662.000000 377.000000"
 preserveAspectRatio="xMidYMid meet">
<metadata>
Created by potrace 1.16, written by Peter Selinger 2001-2019
</metadata>
<g transform="translate(0.000000,377.000000) scale(0.100000,-0.100000)"
fill="#000000" stroke="none">
<path d="M3365 3530 c-71 -7 -172 -33 -230 -60 -11 -5 -31 -14 -45 -20 -27
-12 -41 -20 -108 -63 -74 -48 -184 -147 -227 -206 -16 -22 -33 -41 -37 -41
-16 0 -7 99 13 145 11 25 19 48 17 50 -9 10 -126 -115 -157 -166 -28 -47 -71
-138 -71 -151 0 -8 -6 -22 -13 -33 -7 -11 -20 -51 -30 -90 -59 -252 -54 -509
13 -645 44 -89 60 -129 60 -149 0 -29 32 -162 37 -157 3 3 9 38 13 78 12 116
35 181 86 237 58 64 64 96 29 151 -76 121 -73 215 11 297 141 137 535 219 804
167 89 -18 238 -63 280 -86 107 -58 158 -105 192 -177 26 -56 21 -110 -18
-188 -37 -77 -44 -155 -16 -192 41 -55 52 -99 52 -202 0 -79 3 -97 14 -93 15
6 36 68 36 107 0 38 36 128 62 157 51 55 85 201 74 308 -18 156 -26 210 -36
237 -6 17 -12 60 -12 97 0 53 5 76 22 104 29 46 58 73 94 89 l29 12 -69 41
c-88 52 -164 76 -286 92 -95 12 -97 13 -75 30 22 18 106 58 165 80 17 7 32 18
32 24 0 26 -137 70 -271 86 -125 16 -337 -7 -428 -46 -39 -17 -50 -11 -33 16
7 11 12 26 12 33 0 16 85 109 115 125 l20 11 -20 -1 c-11 -1 -56 -4 -100 -8z"/>
<path d="M3943 1673 c-12 -38 -90 -191 -103 -203 -33 -32 -40 -63 -40 -187 0
-99 -5 -142 -20 -191 -25 -80 -67 -166 -97 -198 -13 -14 -23 -28 -23 -32 -1
-4 -15 -18 -32 -32 -17 -14 -45 -38 -62 -53 -17 -15 -51 -40 -76 -54 -25 -14
-47 -29 -50 -32 -3 -3 -31 -19 -63 -35 l-58 -29 -39 19 c-22 10 -40 22 -40 27
0 4 -5 7 -11 7 -29 0 -204 161 -246 226 -59 90 -93 216 -93 340 0 61 -4 78
-20 94 -11 11 -20 22 -20 25 0 3 -7 13 -16 22 -23 27 -64 91 -99 160 -18 33
-39 70 -47 82 -14 20 -15 20 -52 -11 -88 -72 -165 -209 -191 -337 -15 -70 -15
-93 -5 -154 23 -138 23 -137 9 -137 -7 0 -20 -6 -28 -13 -9 -8 -32 -20 -51
-27 -37 -15 -93 -50 -98 -62 -2 -5 -10 -8 -18 -8 -8 0 -14 -4 -14 -8 0 -5 -11
-14 -24 -20 -33 -15 -61 -38 -121 -97 -48 -48 -67 -76 -107 -155 l-17 -35 67
-66 c63 -61 236 -196 272 -212 8 -3 38 -20 65 -36 46 -27 94 -52 199 -102 22
-11 45 -19 52 -19 7 0 25 -6 41 -14 15 -8 55 -22 88 -32 33 -9 80 -23 104 -30
25 -8 57 -14 73 -14 l28 0 2 198 c1 108 1 226 0 261 -3 88 31 127 71 83 15
-16 17 -52 17 -295 l0 -277 80 -2 c44 -1 125 -2 180 -2 55 0 136 1 180 2 l80
2 0 289 c0 289 0 290 22 297 44 14 48 -9 48 -297 l0 -268 38 6 c20 2 60 11 87
19 28 8 75 21 105 30 30 9 69 22 85 29 17 7 46 18 65 25 45 16 161 73 225 111
28 16 57 33 65 36 32 14 205 147 262 202 l60 57 -33 67 c-17 37 -36 67 -41 67
-4 0 -8 6 -8 13 0 14 -143 157 -158 157 -4 0 -21 12 -38 28 -33 29 -52 41
-115 74 -21 11 -41 23 -43 27 -3 4 6 38 20 75 28 77 32 177 10 247 -7 24 -20
64 -27 89 -20 68 -77 157 -148 232 -64 68 -96 83 -108 51z"/>
</g>
</svg>
