<?xml version="1.0" standalone="no"?>
<!DOCTYPE svg PUBLIC "-//W3C//DTD SVG 20010904//EN"
 "http://www.w3.org/TR/2001/REC-SVG-20010904/DTD/svg10.dtd">
<svg version="1.0" xmlns="http://www.w3.org/2000/svg"
 width="225.000000pt" height="225.000000pt" viewBox="0 0 225.000000 225.000000"
 preserveAspectRatio="xMidYMid meet">
<metadata>
Created by potrace 1.16, written by Peter Selinger 2001-2019
</metadata>
<g transform="translate(0.000000,225.000000) scale(0.100000,-0.100000)"
fill="#000000" stroke="none">
<path d="M1015 2020 c-300 -42 -544 -211 -684 -472 -54 -100 -102 -248 -81
-248 5 0 10 8 10 18 0 10 11 50 24 88 125 368 453 604 841 604 256 0 480 -98
652 -285 164 -177 243 -401 230 -650 -7 -128 -32 -226 -87 -340 -34 -71 -132
-215 -146 -215 -3 0 -16 13 -30 29 -17 20 -43 34 -88 46 -62 17 -64 19 -55 42
23 60 -4 217 -56 331 -32 70 -31 103 5 236 16 59 32 138 35 175 18 178 -68
353 -203 417 -31 14 -86 40 -122 58 -57 27 -74 31 -150 31 -72 -1 -95 -5 -147
-29 -71 -32 -135 -95 -163 -159 -10 -23 -28 -84 -39 -136 -12 -55 -40 -135
-67 -193 -51 -109 -65 -189 -45 -251 7 -20 34 -64 62 -98 77 -96 79 -112 30
-257 -23 -67 -41 -128 -41 -136 0 -8 -26 -20 -64 -30 -63 -17 -92 -38 -116
-85 l-12 -23 -30 28 c-41 39 -109 137 -143 204 -32 63 -75 185 -75 212 0 10
-5 18 -10 18 -20 0 26 -143 76 -240 125 -239 351 -409 617 -464 95 -20 261
-21 359 -2 449 86 768 520 717 975 -43 390 -318 699 -699 785 -84 19 -229 27
-305 16z m295 -347 c0 -29 12 -50 69 -124 43 -56 80 -136 82 -174 1 -17 3 -22
6 -12 5 20 28 23 39 5 11 -17 7 -139 -5 -171 -7 -17 -7 -28 -1 -32 15 -9 12
-45 -5 -51 -8 -3 -27 -2 -43 4 -27 9 -29 8 -52 -41 -14 -28 -49 -77 -78 -109
-52 -56 -53 -58 -42 -92 13 -39 63 -113 93 -137 19 -16 18 -17 -34 -35 -76
-27 -310 -27 -385 -1 l-51 18 35 37 c33 34 82 123 82 148 0 7 -14 27 -32 45
-38 42 -108 147 -108 165 0 10 -7 11 -30 2 -17 -5 -37 -7 -45 -4 -16 6 -20 41
-6 50 6 4 6 20 0 41 -6 19 -9 65 -7 102 2 55 6 68 21 71 12 2 17 -3 18 -20 1
-18 3 -16 10 10 12 42 73 102 131 130 38 19 116 41 261 76 31 7 57 54 57 101
0 14 5 25 10 25 6 0 10 -12 10 -27z"/>
</g>
</svg>
